<?xml version="1.0" encoding="UTF-8"?>
<svg width="285px" height="154px" viewBox="0 0 285 154" version="1.1" xmlns="http://www.w3.org/2000/svg" xmlns:xlink="http://www.w3.org/1999/xlink">
    <!-- Generator: Sketch 56.2 (81672) - https://sketch.com -->
    <title>developer</title>
    <desc>Created with Sketch.</desc>
    <g id="Page-1" stroke="none" stroke-width="1" fill="none" fill-rule="evenodd">
        <g id="developer" fill-rule="nonzero">
            <path d="M285.000215,98.908 C285.003246,103.094203 284.428828,107.260832 283.293,111.29 C282.195937,115.173559 280.581461,118.891899 278.493,122.345 C278.493,134.852 270.067,145.662 257.838,150.805 C252.728687,152.932004 247.246338,154.018207 241.712,154.000225 L54.102,154.000225 C44.075,154.000225 34.783,151.289 27.162,146.67 C24.9805956,145.35413 22.9115664,143.860388 20.976,142.204 C12.506,134.909 7.255,124.829 7.255,113.694 C2.50031081,106.355635 -0.0201552011,97.7940413 -0.000119940233,89.05 C-0.000119940233,70.736 10.81,54.988 26.295,48.036 C28.3513529,47.1131732 30.4764428,46.3518721 32.651,45.759 C36.2430867,44.784297 39.94518,44.2734781 43.667,44.239 L44.095,44.239 C44.957,44.239 45.812,44.269 46.661,44.319 L46.941,43.844 C47.282,43.271 47.633,42.704 47.991,42.144 C48.6419052,41.1182108 49.3218466,40.1111372 50.03,39.124 C50.7775249,38.0722725 51.5541585,37.0415407 52.359,36.033 L52.566,35.783 C53.024,35.21 53.492,34.645 53.971,34.085 C55.477389,32.3266321 57.0564266,30.6318273 58.704,29.005 C76.67,11.359 104.812,0 136.451,0 C161.07,0 183.573,6.878 200.811,18.242 C207.338688,14.5392967 214.716289,12.5958277 222.221,12.602 C246.57,12.602 266.315,32.666 266.315,57.416 C266.311439,58.9822076 266.228332,60.5472236 266.066,62.105 C277.98365,70.5663167 285.04518,84.2921793 285.000215,98.908 Z" id="Path" fill="#1A5EEF" opacity="0.1"></path>
            <path d="M58,29 L58,34 L53,34 C54.5908393,32.2591928 56.2591928,30.5908393 58,29 L58,29 Z M61,27 L67,27 L67,33 L61,33 L61,27 Z M69,27 L75,27 L75,33 L69,33 L69,27 Z M78,27 L84,27 L84,33 L78,33 L78,27 Z M87,27 L93,27 L93,33 L87,33 L87,27 Z M97,27 L103,27 L103,33 L97,33 L97,27 Z" id="Shape" fill="#1A5EEF" opacity="0.2"></path>
            <polygon id="Path" fill="#1A5EEF" points="105 27 111 27 111 33 105 33"></polygon>
            <path d="M113,27 L119,27 L119,33 L113,33 L113,27 Z M122,27 L128,27 L128,33 L122,33 L122,27 Z M130,27 L136,27 L136,33 L130,33 L130,27 Z" id="Shape" fill="#1A5EEF" opacity="0.2"></path>
            <polygon id="Path" fill="#1A5EEF" points="139 27 145 27 145 33 139 33"></polygon>
            <path d="M148,27 L154,27 L154,33 L148,33 L148,27 Z M156,27 L162,27 L162,33 L156,33 L156,27 Z M166,27 L172,27 L172,33 L166,33 L166,27 Z M174,27 L180,27 L180,33 L174,33 L174,27 Z M182,27 L188,27 L188,33 L182,33 L182,27 Z M191,27 L197,27 L197,33 L191,33 L191,27 Z" id="Shape" fill="#1A5EEF" opacity="0.2"></path>
            <path d="M200,27 L206,27 L206,33 L200,33 L200,27 Z M208,27 L214,27 L214,33 L208,33 L208,27 Z" id="Shape" fill="#1A5EEF"></path>
            <path d="M217,27 L223,27 L223,33 L217,33 L217,27 Z M226,27 L232,27 L232,33 L226,33 L226,27 Z" id="Shape" fill="#1A5EEF" opacity="0.2"></path>
            <path d="M234,27 L240,27 L240,33 L234,33 L234,27 Z M243,27 L249,27 L249,33 L243,33 L243,27 Z M51,40 L51,44 L49,44 C49.6303071,42.6487946 50.2972199,41.3149689 51,40 L51,40 Z" id="Shape" fill="#1A5EEF"></path>
            <polygon id="Path" fill="#1A5EEF" opacity="0.2" points="52 36 58 36 58 42 52 42"></polygon>
            <polygon id="Path" fill="#1A5EEF" points="61 36 67 36 67 42 61 42"></polygon>
            <polygon id="Path" fill="#1A5EEF" opacity="0.2" points="69 36 75 36 75 42 69 42"></polygon>
            <polygon id="Path" fill="#1A5EEF" opacity="0.7" points="78 36 84 36 84 42 78 42"></polygon>
            <polygon id="Path" fill="#1A5EEF" opacity="0.2" points="87 36 93 36 93 42 87 42"></polygon>
            <polygon id="Path" fill="#1A5EEF" opacity="0.4" points="97 36 103 36 103 42 97 42"></polygon>
            <polygon id="Path" fill="#1A5EEF" points="105 36 111 36 111 42 105 42"></polygon>
            <polygon id="Path" fill="#1A5EEF" opacity="0.4" points="113 36 119 36 119 42 113 42"></polygon>
            <polygon id="Path" fill="#1A5EEF" opacity="0.2" points="122 36 128 36 128 42 122 42"></polygon>
            <polygon id="Path" fill="#1A5EEF" opacity="0.4" points="130 36 136 36 136 42 130 42"></polygon>
            <polygon id="Path" fill="#1A5EEF" points="139 36 145 36 145 42 139 42"></polygon>
            <path d="M148,36 L154,36 L154,42 L148,42 L148,36 Z M156,36 L162,36 L162,42 L156,42 L156,36 Z" id="Shape" fill="#1A5EEF" opacity="0.4"></path>
            <polygon id="Path" fill="#1A5EEF" opacity="0.2" points="166 36 172 36 172 42 166 42"></polygon>
            <path d="M174,36 L180,36 L180,42 L174,42 L174,36 Z M182,36 L188,36 L188,42 L182,42 L182,36 Z" id="Shape" fill="#1A5EEF" opacity="0.4"></path>
            <path d="M191,36 L197,36 L197,42 L191,42 L191,36 Z M200,36 L206,36 L206,42 L200,42 L200,36 Z" id="Shape" fill="#1A5EEF" opacity="0.2"></path>
            <polygon id="Path" fill="#1A5EEF" opacity="0.4" points="208 36 214 36 214 42 208 42"></polygon>
            <polygon id="Path" fill="#1A5EEF" opacity="0.2" points="217 36 223 36 223 42 217 42"></polygon>
            <path d="M226,36 L232,36 L232,42 L226,42 L226,36 Z M234,36 L240,36 L240,42 L234,42 L234,36 Z M243,36 L249,36 L249,42 L243,42 L243,36 Z" id="Shape" fill="#1A5EEF"></path>
            <path d="M33,46 L33,50 L27,50 L27,48.046 C28.9461059,47.2151374 30.9517173,46.5312239 33,46 L33,46 Z M42,45 L42,50 L36,50 L36,45.742 L42,45 Z" id="Shape" fill="#1A5EEF" opacity="0.2"></path>
            <polygon id="Path" fill="#1A5EEF" points="43 44 49 44 49 50 43 50"></polygon>
            <polygon id="Path" fill="#1A5EEF" opacity="0.7" points="52 44 58 44 58 50 52 50"></polygon>
            <polygon id="Path" fill="#1A5EEF" points="61 44 67 44 67 50 61 50"></polygon>
            <path d="M69,44 L75,44 L75,50 L69,50 L69,44 Z M78,44 L84,44 L84,50 L78,50 L78,44 Z" id="Shape" fill="#1A5EEF" opacity="0.7"></path>
            <polygon id="Path" fill="#1A5EEF" opacity="0.2" points="87 44 93 44 93 50 87 50"></polygon>
            <path d="M97,44 L103,44 L103,50 L97,50 L97,44 Z M105,44 L111,44 L111,50 L105,50 L105,44 Z" id="Shape" fill="#1A5EEF" opacity="0.4"></path>
            <polygon id="Path" fill="#1A5EEF" points="113 44 119 44 119 50 113 50"></polygon>
            <polygon id="Path" fill="#1A5EEF" opacity="0.2" points="122 44 128 44 128 50 122 50"></polygon>
            <polygon id="Path" fill="#1A5EEF" opacity="0.4" points="130 44 136 44 136 50 130 50"></polygon>
            <polygon id="Path" fill="#1A5EEF" points="139 44 145 44 145 50 139 50"></polygon>
            <polygon id="Path" fill="#1A5EEF" opacity="0.2" points="148 44 154 44 154 50 148 50"></polygon>
            <polygon id="Path" fill="#1A5EEF" opacity="0.4" points="156 44 162 44 162 50 156 50"></polygon>
            <polygon id="Path" fill="#1A5EEF" opacity="0.2" points="166 44 172 44 172 50 166 50"></polygon>
            <polygon id="Path" fill="#1A5EEF" points="174 44 180 44 180 50 174 50"></polygon>
            <polygon id="Path" fill="#1A5EEF" opacity="0.2" points="182 44 188 44 188 50 182 50"></polygon>
            <path d="M191,44 L197,44 L197,50 L191,50 L191,44 Z M200,44 L206,44 L206,50 L200,50 L200,44 Z" id="Shape" fill="#1A5EEF" opacity="0.7"></path>
            <polygon id="Path" fill="#1A5EEF" opacity="0.4" points="208 44 214 44 214 50 208 50"></polygon>
            <polygon id="Path" fill="#1A5EEF" opacity="0.2" points="217 44 223 44 223 50 217 50"></polygon>
            <path d="M226,44 L232,44 L232,50 L226,50 L226,44 Z M234,44 L240,44 L240,50 L234,50 L234,44 Z M243,44 L249,44 L249,50 L243,50 L243,44 Z" id="Shape" fill="#1A5EEF"></path>
            <path d="M27,51 L33,51 L33,57 L27,57 L27,51 Z M36,51 L42,51 L42,57 L36,57 L36,51 Z M43,51 L49,51 L49,57 L43,57 L43,51 Z M52,51 L58,51 L58,57 L52,57 L52,51 Z" id="Shape" fill="#1A5EEF" opacity="0.2"></path>
            <polygon id="Path" fill="#1A5EEF" points="61 51 67 51 67 57 61 57"></polygon>
            <path d="M69,51 L75,51 L75,57 L69,57 L69,51 Z M78,51 L84,51 L84,57 L78,57 L78,51 Z" id="Shape" fill="#1A5EEF" opacity="0.7"></path>
            <path d="M87,51 L93,51 L93,57 L87,57 L87,51 Z M97,51 L103,51 L103,57 L97,57 L97,51 Z" id="Shape" fill="#1A5EEF" opacity="0.2"></path>
            <path d="M105,51 L111,51 L111,57 L105,57 L105,51 Z M113,51 L119,51 L119,57 L113,57 L113,51 Z" id="Shape" fill="#1A5EEF" opacity="0.4"></path>
            <polygon id="Path" fill="#1A5EEF" points="122 51 128 51 128 57 122 57"></polygon>
            <polygon id="Path" fill="#1A5EEF" opacity="0.2" points="130 51 136 51 136 57 130 57"></polygon>
            <path d="M139,51 L145,51 L145,57 L139,57 L139,51 Z M148,51 L154,51 L154,57 L148,57 L148,51 Z M156,51 L162,51 L162,57 L156,57 L156,51 Z M166,51 L172,51 L172,57 L166,57 L166,51 Z" id="Shape" fill="#1A5EEF" opacity="0.4"></path>
            <path d="M174,51 L180,51 L180,57 L174,57 L174,51 Z M182,51 L188,51 L188,57 L182,57 L182,51 Z M191,51 L197,51 L197,57 L191,57 L191,51 Z M200,51 L206,51 L206,57 L200,57 L200,51 Z" id="Shape" fill="#1A5EEF" opacity="0.2"></path>
            <path d="M208,51 L214,51 L214,57 L208,57 L208,51 Z M217,51 L223,51 L223,57 L217,57 L217,51 Z" id="Shape" fill="#1A5EEF" opacity="0.7"></path>
            <polygon id="Path" fill="#1A5EEF" opacity="0.4" points="226 51 232 51 232 57 226 57"></polygon>
            <polygon id="Path" fill="#1A5EEF" opacity="0.2" points="234 51 240 51 240 57 234 57"></polygon>
            <polygon id="Path" fill="#1A5EEF" points="243 51 249 51 249 57 243 57"></polygon>
            <path d="M27,60 L33,60 L33,66 L27,66 L27,60 Z M36,60 L42,60 L42,66 L36,66 L36,60 Z" id="Shape" fill="#1A5EEF" opacity="0.2"></path>
            <polygon id="Path" fill="#1A5EEF" opacity="0.4" points="43 60 49 60 49 66 43 66"></polygon>
            <path d="M52,60 L58,60 L58,66 L52,66 L52,60 Z M61,60 L67,60 L67,66 L61,66 L61,60 Z" id="Shape" fill="#1A5EEF" opacity="0.2"></path>
            <path d="M69,60 L75,60 L75,66 L69,66 L69,60 Z M78,60 L84,60 L84,66 L78,66 L78,60 Z" id="Shape" fill="#1A5EEF" opacity="0.7"></path>
            <path d="M87,60 L93,60 L93,66 L87,66 L87,60 Z M97,60 L103,60 L103,66 L97,66 L97,60 Z" id="Shape" fill="#1A5EEF" opacity="0.2"></path>
            <polygon id="Path" fill="#1A5EEF" opacity="0.4" points="105 60 111 60 111 66 105 66"></polygon>
            <polygon id="Path" fill="#1A5EEF" points="113 60 119 60 119 66 113 66"></polygon>
            <polygon id="Path" fill="#1A5EEF" opacity="0.2" points="122 60 128 60 128 66 122 66"></polygon>
            <path d="M130,60 L136,60 L136,66 L130,66 L130,60 Z M139,60 L145,60 L145,66 L139,66 L139,60 Z M148,60 L154,60 L154,66 L148,66 L148,60 Z" id="Shape" fill="#1A5EEF"></path>
            <polygon id="Path" fill="#1A5EEF" opacity="0.2" points="156 60 162 60 162 66 156 66"></polygon>
            <polygon id="Path" fill="#1A5EEF" points="166 60 172 60 172 66 166 66"></polygon>
            <path d="M174,60 L180,60 L180,66 L174,66 L174,60 Z M182,60 L188,60 L188,66 L182,66 L182,60 Z M191,60 L197,60 L197,66 L191,66 L191,60 Z M200,60 L206,60 L206,66 L200,66 L200,60 Z M208,60 L214,60 L214,66 L208,66 L208,60 Z" id="Shape" fill="#1A5EEF" opacity="0.2"></path>
            <polygon id="Path" fill="#1A5EEF" opacity="0.7" points="217 60 223 60 223 66 217 66"></polygon>
            <path d="M226,60 L232,60 L232,66 L226,66 L226,60 Z M234,60 L240,60 L240,66 L234,66 L234,60 Z" id="Shape" fill="#1A5EEF" opacity="0.2"></path>
            <polygon id="Path" fill="#1A5EEF" points="243 60 249 60 249 66 243 66"></polygon>
            <path d="M27,68 L33,68 L33,74 L27,74 L27,68 Z M36,68 L42,68 L42,74 L36,74 L36,68 Z M43,68 L49,68 L49,74 L43,74 L43,68 Z" id="Shape" fill="#1A5EEF" opacity="0.2"></path>
            <polygon id="Path" fill="#1A5EEF" opacity="0.4" points="52 68 58 68 58 74 52 74"></polygon>
            <path d="M61,68 L67,68 L67,74 L61,74 L61,68 Z M69,68 L75,68 L75,74 L69,74 L69,68 Z" id="Shape" fill="#1A5EEF" opacity="0.2"></path>
            <polygon id="Path" fill="#1A5EEF" opacity="0.7" points="78 68 84 68 84 74 78 74"></polygon>
            <path d="M87,68 L93,68 L93,74 L87,74 L87,68 Z M97,68 L103,68 L103,74 L97,74 L97,68 Z M105,68 L111,68 L111,74 L105,74 L105,68 Z" id="Shape" fill="#1A5EEF" opacity="0.2"></path>
            <polygon id="Path" fill="#1A5EEF" points="113 68 119 68 119 74 113 74"></polygon>
            <polygon id="Path" fill="#1A5EEF" opacity="0.2" points="122 68 128 68 128 74 122 74"></polygon>
            <path d="M130,68 L136,68 L136,74 L130,74 L130,68 Z M139,68 L145,68 L145,74 L139,74 L139,68 Z" id="Shape" fill="#1A5EEF"></path>
            <path d="M148,68 L154,68 L154,74 L148,74 L148,68 Z M156,68 L162,68 L162,74 L156,74 L156,68 Z M166,68 L172,68 L172,74 L166,74 L166,68 Z M174,68 L180,68 L180,74 L174,74 L174,68 Z M182,68 L188,68 L188,74 L182,74 L182,68 Z M191,68 L197,68 L197,74 L191,74 L191,68 Z M200,68 L206,68 L206,74 L200,74 L200,68 Z M208,68 L214,68 L214,74 L208,74 L208,68 Z M217,68 L223,68 L223,74 L217,74 L217,68 Z M226,68 L232,68 L232,74 L226,74 L226,68 Z" id="Shape" fill="#1A5EEF" opacity="0.2"></path>
            <polygon id="Path" fill="#1A5EEF" opacity="0.4" points="234 68 240 68 240 74 234 74"></polygon>
            <polygon id="Path" fill="#1A5EEF" points="243 68 249 68 249 74 243 74"></polygon>
            <path d="M27,76 L33,76 L33,82 L27,82 L27,76 Z M36,76 L42,76 L42,82 L36,82 L36,76 Z M43,76 L49,76 L49,82 L43,82 L43,76 Z M52,76 L58,76 L58,82 L52,82 L52,76 Z M61,76 L67,76 L67,82 L61,82 L61,76 Z" id="Shape" fill="#1A5EEF" opacity="0.7"></path>
            <path d="M69,76 L75,76 L75,82 L69,82 L69,76 Z M78,76 L84,76 L84,82 L78,82 L78,76 Z M87,76 L93,76 L93,82 L87,82 L87,76 Z M97,76 L103,76 L103,82 L97,82 L97,76 Z M105,76 L111,76 L111,82 L105,82 L105,76 Z M113,76 L119,76 L119,82 L113,82 L113,76 Z" id="Shape" fill="#1A5EEF" opacity="0.2"></path>
            <polygon id="Path" fill="#1A5EEF" points="122 76 128 76 128 82 122 82"></polygon>
            <path d="M130,76 L136,76 L136,82 L130,82 L130,76 Z M139,76 L145,76 L145,82 L139,82 L139,76 Z M148,76 L154,76 L154,82 L148,82 L148,76 Z" id="Shape" fill="#1A5EEF" opacity="0.2"></path>
            <polygon id="Path" fill="#1A5EEF" points="156 76 162 76 162 82 156 82"></polygon>
            <path d="M166,76 L172,76 L172,82 L166,82 L166,76 Z M174,76 L180,76 L180,82 L174,82 L174,76 Z M182,76 L188,76 L188,82 L182,82 L182,76 Z M191,76 L197,76 L197,82 L191,82 L191,76 Z M200,76 L206,76 L206,82 L200,82 L200,76 Z M208,76 L214,76 L214,82 L208,82 L208,76 Z M217,76 L223,76 L223,82 L217,82 L217,76 Z M226,76 L232,76 L232,82 L226,82 L226,76 Z M234,76 L240,76 L240,82 L234,82 L234,76 Z" id="Shape" fill="#1A5EEF" opacity="0.2"></path>
            <polygon id="Path" fill="#1A5EEF" points="243 76 249 76 249 82 243 82"></polygon>
            <circle id="Oval" fill="#767D9F" cx="182.5" cy="90.5" r="8.5"></circle>
            <path d="M181.225,79.747 C182.100138,83.5869841 182.842911,87.455939 183.452,91.347 C183.636,92.504 183.799,93.725 183.382,94.819 C183.032,95.731 182.321,96.444 181.762,97.242 C181.204,98.041 180.782,99.064 181.122,99.979 C181.461,100.894 182.452,101.394 183.397,101.652 C186.102,102.385 188.986,101.852 191.679,101.058 C192.898675,100.742446 194.067587,100.25596 195.151,99.613 C196.292,98.885 197.227,97.873 198.087,96.833 C202.012,92.049 204.581,86.308 207,80.601 C203.843873,80.8881644 200.743434,79.6329408 198.676,77.231 C197.685,76.061 196.958,74.431 197.516,73 C195.88,73.902 193.936,73.963 192.174,74.58 C191.080538,74.9997047 190.028364,75.5199332 189.031,76.134 C187.828,76.833 186.631,77.545 185.441,78.271 C184.081,79.095 182.806,79.828 181.225,79.747 L181.225,79.747 Z" id="Path" fill="#F4E8EA"></path>
            <path d="M201.751,86.102 C200.217,89.096 198.22,91.973 195.369,93.755 C192.518,95.538 188.679,96.021 185.823,94.259 C184.417,93.398 183.352,92.089 182.123,90.986 C180.895,89.884 179.36,88.94 177.71,89.083 C175.891,89.242 174.467,90.664 173.249,92.026 C171.4,94.096 169.614,96.253 168.305,98.702 C165.793,103.41 165.198,108.913 165.309,114.25 C165.419,119.587 166.19,124.897 166.208,130.234 C166.233,136.8 165.123,143.312 164,149.78 C174.324,148.506 184.66,151.29 195.007,152.345 C201.628,153.027 208.3,153.012 214.957,152.995 C216.127,152.995 217.373,152.965 218.347,152.315 C218.943306,151.879115 219.425343,151.305474 219.752,150.643 C220.671,148.943 221.04,147.005 221.296,145.09 C221.947,140.251 221.967,135.352 221.985,130.468 C222.03,118.636 222.073,106.761 220.573,95.022 C220.203,92.134 219.732,89.232 218.626,86.53 C217.521,83.829 215.718,81.344 213.196,79.897 C211.576,78.965 207.82,77.344 205.911,78.283 C203.768,79.33 202.779,84.098 201.751,86.103 L201.751,86.102 Z" id="Path" fill="#767D9F"></path>
            <path d="M201.171,118.7 C200.785,111.548 199.215,103.914 202.557,97.566 C203.379,96.006 200.432,94.061 201.343,92.551 C202.453904,90.7126602 203.297053,88.7253333 203.847,86.649 C204.036,85.936 204.187,85.182 204.009,84.466 C203.678,83.162 202.376,82.385 201.271,81.591 C200.051,80.713 199.424,78.037 199.031,76.589 C198.637,75.141 202.159,76.885 203.576,76.369 C205.542,75.656 208.041,76.105 210.002,76.828 C211.098,77.228 212.287,77.262 213.455,77.292 C215.722,77.351 217.997,77.408 220.247,77.132 C221.258,77.006 222.271,76.816 223.287,76.872 C225.877,77.018 228.13,78.774 229.664,80.851 C231.197,82.927 232.173,85.347 233.43,87.596 C234.478,89.471 235.727,91.242 236.62,93.193 C237.412,94.919 237.913,96.773 238.408,98.619 L239.685,103.352 C239.908,104.029 240.015,104.738 239.998,105.451 C239.934,106.208 239.595,106.913 239.252,107.587 C237.951779,110.084365 236.394334,112.439134 234.605,114.613 C231.919,117.876 228.658,120.819 227.063,124.726 C226.44,126.247 226.094,127.866 225.778,129.478 C224.503644,135.928528 223.597843,142.446423 223.065,149 C218.696319,146.997174 214.026792,145.729779 209.245,145.249 C207.855,145.106 206.06,145.377 204.735,145.002 C202.52,144.378 202.276,140.666 201.94,138.722 C201.403,135.627 201.296,132.478 201.276,129.35 C201.251,125.794 201.363,122.244 201.171,118.7 L201.171,118.7 Z M152.515,106.366 C153.564,112.349 154.72,118.349 157,123.971 C156.943909,124.023704 156.886559,124.075052 156.828,124.125 C156.626,124.297 156.417,124.459 156.198,124.624 C155.687,124.983 155.126,125.287 154.703,125.756 C154.543,125.936 154.416,126.142 154.329,126.366 C154.17,126.721 154.17,127.126 154.329,127.481 C153.14,128.007 151.759,127.845 150.427,127.795 C149.277,127.753 148.164,127.795 147.242,128.425 C145.962,129.308 145.575,131.004 145.368,132.545 C145.2916,133.106028 145.225922,133.668464 145.171,134.232 C144.915224,136.813458 144.873415,139.411649 145.046,142 C140.976,141.903 137.265,139.779 133.754,137.715 C132.952,137.243 132.124,136.747 131.604,135.97 C131.123785,135.205879 130.920452,134.300059 131.028,133.404 C131.028,133.277 131.05,133.154 131.068,133.025 C131.18,132.285 131.371,131.56 131.638,130.861 C132.736363,127.885409 134.355619,125.129085 136.42,122.721 C137.312,121.68 138.317,120.661 138.733,119.351 C138.915,118.781 138.982,118.175 139.166,117.606 C139.994,115.143 142.979,113.979 144,111.588 C144.25,111.018 144.364,110.392 144.673,109.843 C144.951434,109.387188 145.310641,108.985961 145.733,108.659 C145.914,108.507 146.103,108.359 146.29,108.213 C148.041519,106.839799 149.730234,105.388325 151.351,103.863 C151.653,103.578 151.952,103.291 152.248,103 C152.208,104.128 152.298,105.257 152.515,106.366 Z" id="Shape" fill="#1A5EEF"></path>
            <path d="M178.188,88.41 C177.832,88.788 177.446,89.143 177.068,89.495 L176.966,89.587 L176.565,89.96 C175.837233,90.5903363 175.207629,91.3257727 174.697,92.142 L174.655,92.212 C173.393,94.479 173.86,97.27 174.212,99.844 C174.647705,103.052953 174.843581,106.289923 174.798,109.528 C174.734,113.998 174.209,118.437 174.199,122.901 C174.199,123.914 174.222,124.925 174.266,125.938 C174.338,127.584 174.462,129.228 174.61,130.871 C174.771,132.674 174.964,134.474 175.145,136.274 C175.288,137.667 175.425,139.058 175.538,140.448 C175.595,141.168 175.649,141.886 175.694,142.606 C175.746,143.45 175.788,144.296 175.813,145.141 C175.83,145.677 175.84,146.211 175.84,146.747 L175.84,147.659 C175.84,148.239 175.824,148.819 175.793,149.397 C175.759795,150.142726 175.709448,150.887589 175.642,151.631 C175.565,152.443 175.429,153.33 174.86,153.901 C174.824853,153.935283 174.788497,153.968304 174.751,154 L173.949,153.9 C168.422442,153.23643 162.842705,153.136917 157.296,153.603 C157.417,152.763 157.528,151.927 157.637,151.085 C157.80604,149.734494 157.959384,148.382069 158.097,147.028 C158.502893,142.990133 158.753078,138.938129 158.847,134.881 C158.875,133.769 158.889,132.656 158.887,131.541 C158.887,130.459 158.877,129.375 158.86,128.289 C158.86,127.932 158.845,127.574 158.815,127.219 C158.793752,126.899314 158.749977,126.581525 158.684,126.268 C158.500452,125.54513 158.252113,124.840278 157.942,124.162 C157.887,124.033 157.835,123.914 157.783,123.778 C157.753,123.711 157.726,123.641 157.699,123.574 C159.124,122.3 160.139,120.594 161.114,118.916 C162.695,116.212 164.314,113.389 164.578,110.266 C164.843,107.142 163.297,103.633 160.322,102.68 C159.513,102.432 158.657,102.362 157.822,102.216 C157.036,102.076 155.395,101.761 154.485,101.196 C153.99,101.705 153.495,102.206 153,102.697 C153.03,101.947 153.213,101.211 153.537,100.535 L153.888,100.552 C153.859266,100.472564 153.845698,100.388441 153.848,100.304 C153.848,100.038 154.032,99.738 154.423,99.404 C155.588,98.412 157.422,98.191 158.157,96.847 C158.464,96.289 158.516,95.623 158.763,95.037 C159.473,93.367 161.513,92.751 162.74,91.415 C163.967,90.079 164.274,88.187 165.266,86.697 C166.006422,85.6097796 167.03478,84.7500447 168.236,84.214 C168.335,84.167 168.436,84.12 168.538,84.078 C170.591,83.196 173.031,82.995 175.159,82.9999098 C175.986,82.9999098 178.129,83.025 179.179,83.445 C179.349,83.505 179.504,83.601 179.636,83.725 C180.754,84.947 179.015,87.527 178.188,88.41 L178.188,88.41 Z" id="Path" fill="#1A5EEF"></path>
            <path d="M153.651,99.653 C157.528625,98.465502 161.722805,98.9104158 165.265,100.885 C167.054,101.895 168.659,103.307 169.643,105.127 C171.121,107.857 171.057,111.149 170.953,114.267 C170.9,115.827 170.833,117.442 170.157,118.842 C169.375,120.462 167.899,121.575 166.393,122.485 C165.452051,123.09649 164.41836,123.551705 163.332,123.833 C161.662,124.202 159.928,123.888 158.246,123.58 C156.417,123.236 154.454,122.822 153.184,121.436 C152.439,120.632 152.031,119.588 151.629,118.566 C151.051,117.092 150.471,115.619 149.889,114.147 C148.883,111.591 148.543,109.465 149.872,106.975 C150.476,105.84 151.214,104.778 151.81,103.635 C152.108,103.054 153.177,99.803 153.651,99.653 L153.651,99.653 Z" id="Path" fill="#1A5EEF"></path>
            <path d="M258,143.44 L258,150.766 C252.898028,152.855084 247.43508,153.920627 241.922,153.902 L174.934,153.902 C174.898512,153.935966 174.861822,153.968653 174.824,154 L174.02,153.902 L54.86,153.902 C44.863,153.902 35.598,151.242 28,146.709 L28,135.524 L85.308,129 L85.353,129 L118.726,131.788 L127.363,132.523 L131.849,132.898 L141.133,133.675 L145.91,134.074 L152.865,134.657 L153.843,134.737 L158.856,135.157 L165.656,135.708 L175.22,136.507 L191.161,137.842 L202.376,138.78 L220.791,140.322 L224.294,140.613 L224.671,140.645 L224.999,140.672 L229.624,141.059 L234.701,141.485 L235.29,141.535 L258,143.44 Z" id="Path" fill="#504F60"></path>
            <polygon id="Path" fill="#9C9CA1" points="189 142.708 117.762 130 115 144.598 147.655 148.684 157.71 150 185.368 144.307"></polygon>
            <path d="M154,149.497 L189.543,142.024 C189.903,141.947 190.275,142.054 190.557,142.316 C190.839,142.578 191.001,142.967 191,143.377 C191.002,144.04 190.58,144.61 189.996,144.73 L155.286,152 L154,149.497 L154,149.497 Z" id="Path" fill="#9C9CA1"></path>
            <path d="M168.039,127.633 C169.16,127.533 170.297,127.363 171.306,126.884 C172.55,126.289 173.517,125.262 174.669,124.506 C177.201,122.831 180.588,122.606 183.49,123.568 C186.393,124.53 188.815,126.59 190.511,129.05 C191.638,130.689 192.483,132.78 191.688,134.589 C191.413296,135.143881 191.068842,135.661402 190.663,136.129 L188.589,138.738 C188.192247,139.28891 187.71802,139.77964 187.181,140.195 C186.405,140.738 185.441,140.96 184.491,141.095 C181.966,141.448 179.397,141.247 176.853,141.41 C172.483,141.69 168.215,143.044 163.836,142.999 C161.319,142.973 158.834,142.484 156.374,141.996 L145.489,139.843 C143.594,139.47 141.452,138.924 140.559,137.271 C140.159,136.527 140.085,135.665 140.037,134.828 C139.908,132.522 140.037,129.957 141.699,128.294 C143.26,126.734 145.73,126.241 147.595,125.088 C149.878,123.674 150.632,124.131 153.039,125.193 C157.757779,127.242816 162.913823,128.081533 168.039,127.633 L168.039,127.633 Z" id="Path" fill="#F4E8EA"></path>
            <path d="M168.039,127.633 C169.16,127.533 170.297,127.363 171.306,126.884 C172.55,126.289 173.517,125.262 174.669,124.506 C177.201,122.831 180.588,122.606 183.49,123.568 C186.393,124.53 188.815,126.59 190.511,129.05 C191.638,130.689 192.483,132.78 191.688,134.589 C191.413296,135.143881 191.068842,135.661402 190.663,136.129 L188.589,138.738 C188.192247,139.28891 187.71802,139.77964 187.181,140.195 C186.405,140.738 185.441,140.96 184.491,141.095 C181.966,141.448 179.397,141.247 176.853,141.41 C172.483,141.69 168.215,143.044 163.836,142.999 C161.319,142.973 158.834,142.484 156.374,141.996 L145.489,139.843 C143.594,139.47 141.452,138.924 140.559,137.271 C140.159,136.527 140.085,135.665 140.037,134.828 C139.908,132.522 140.037,129.957 141.699,128.294 C143.26,126.734 145.73,126.241 147.595,125.088 C149.878,123.674 150.632,124.131 153.039,125.193 C157.757779,127.242816 162.913823,128.081533 168.039,127.633 L168.039,127.633 Z" id="Path" fill="#000000" opacity="0.05"></path>
            <path d="M212.659,124.288 C209.639,125.484 206.603,126.684 203.442,127.396 C198.142,128.592 192.595,128.403 187.336,129.77 C184.558,130.495 181.797,131.663 178.943,131.426 C177.667,131.32 176.436,130.923 175.194,130.621 C168.219,128.859 160.291,129.431 154.626,133.961 C152.689,135.508 151.103,137.439 149.666,139.497 C149.041818,140.403354 148.844582,141.5371 149.126,142.601 C149.400341,143.658 150.130192,144.538438 151.118,145.004 C153.315276,146.039839 155.676265,146.684822 158.095,146.91 C161.323,147.201 164.566,146.733 167.777,146.265 C172.541,145.573 177.308,144.878 182.061,144.101 C183.767,143.821 185.473,143.531 187.189,143.311 C199.538,141.712 212.11,143.655 224.491,142.321 C225.743,142.185 227.016,142.009 228.154,141.463 C231.036,140.079 232.462,136.429 231.867,133.223 C231.272,130.017 228.976,127.351 226.212,125.715 C223.896,124.339 221.399,123.782 218.82,123.198 C216.425,122.628 214.965,123.382 212.659,124.288 L212.659,124.288 Z" id="Path" fill="#F4E8EA"></path>
            <path d="M239.403,105.658 C240.816,107.472 241.117,109.906 240.964,112.178 C240.811,114.45 240.26,116.697 240.179,118.978 C240.066,122.108 240.837,125.226 240.706,128.345 C240.615,130.527 240.086,132.666 239.462,134.76 C238.725,137.232 237.659,139.889 235.332,141.076 C232.241,142.653 225.759,141.766 222.508,143 C222.804,141.193 225.639,138.577 225.935,136.77 C226.139,135.52 226.345,134.236 226.126,132.983 C225.846,131.387 224.889,129.97 223.755,128.79 C221.949,126.913 219.593,125.501 217.005,125.041 C214.417,124.581 208.08,124.959 206.01,126.561 C205.755,124.906 210.498,123.311 212.165,122.954 C212.997,122.772 213.95,122.874 214.615,122.357 C215.891,121.377 214.965,119.426 215.026,117.859 C215.075,116.609 215.819,115.465 215.97,114.215 C216.225,112.215 214.894,110.179 215.416,108.217 C215.61,107.492 216.041,106.855 216.34,106.165 C217.247,104.053 216.85,101.645 216.365,99.4 C216.065,97.99 215.771,96.401 216.572,95.2 C217.314,94.077 219.42,98.073 220.769,97.888 C225.223,97.276 229.255,94.039 232.853,96.688 C234.686,98.038 234.926,99.438 235.658,101.364 C236.369,103.199 238.213,104.138 239.403,105.658 L239.403,105.658 Z" id="Path" fill="#000000" opacity="0.1"></path>
            <path d="M240.403,105.425 C241.816,107.25 242.117,109.7 241.964,111.985 C241.811,114.272 241.26,116.532 241.179,118.828 C241.066,121.977 241.837,125.115 241.706,128.254 C241.615,130.449 241.086,132.602 240.462,134.709 C239.725,137.196 238.659,139.869 236.332,141.064 C233.241,142.65 226.759,141.758 223.508,143 C223.804,141.182 226.639,138.549 226.935,136.73 C227.139,135.473 227.345,134.18 227.126,132.92 C226.846,131.314 225.889,129.888 224.755,128.701 C222.949,126.813 220.593,125.391 218.005,124.929 C215.417,124.466 209.08,124.846 207.01,126.458 C206.755,124.793 211.498,123.188 213.165,122.829 C213.997,122.646 214.95,122.749 215.615,122.229 C216.891,121.242 215.965,119.279 216.026,117.702 C216.075,116.444 216.819,115.292 216.97,114.035 C217.225,112.023 215.894,109.974 216.416,108 C216.61,107.27 217.041,106.63 217.34,105.935 C218.247,103.81 217.85,101.386 217.365,99.128 C217.065,97.71 216.771,96.11 217.572,94.901 C218.314,93.771 219.765,93.344 221.113,93.155 C225.622372,92.5506603 230.190791,93.7130096 233.863,96.399 C235.696,97.757 235.936,99.166 236.668,101.104 C237.369,102.95 239.213,103.896 240.403,105.424 L240.403,105.425 Z" id="Path" fill="#1A5EEF"></path>
            <path d="M75.11,94.327 L88.694,143.912 C89.0428286,145.16185 90.1277533,146.066086 91.42,146.184 L152.566,151.986 C153.574444,152.083252 154.568192,151.689994 155.237,150.929 C155.902,150.17 156.152,149.14 155.909,148.166 L141.032,88.356 C140.667,86.887 139.281,85.896 137.754,86.009 L77.891,90.43 C76.96,90.501 76.111,90.979 75.572,91.732 C75.0349696,92.4828668 74.8652326,93.4358924 75.11,94.326 L75.11,94.327 Z" id="Path" fill="#9C9CA1"></path>
            <circle id="Oval" fill="#FFFFFF" cx="196" cy="96" r="7"></circle>
            <path d="M200.986,84.112 C200.986,84.112 202.268,88.496 198.484,90.339 L198,91.312 L200.37,93.999998 C200.37,93.999998 203.293,87.872 202.976,85.695 C202.976,85.695 202.524,83.485 200.986,84.112 Z" id="Path" fill="#FFFFFF"></path>
            <circle id="Oval" fill="#1A5EEF" cx="197" cy="96" r="6"></circle>
            <path d="M204.737,87 L203.645,85.435 L202.053,85.24 C202.393,80.088 200.851,78.553 200.851,78.553 L200.493,78.523 L198.933,78.392 L196,75.75 L196,75 C200.122,75.426 202.4,77.124 203.631,79.114 C205.806,82.607 204.737,87 204.737,87 Z" id="Path" fill="#1A5EEF"></path>
            <path d="M200,75.632 L200,77 L198.611,76.81 L196,73 C196,73 200.04,74.271 200,75.632 Z M203.805,87 L203,85.212 L203,78 C204.593,81.98 203.805,87 203.805,87 Z" id="Shape" stroke="#4C4981" fill="#000000" opacity="0.1"></path>
            <ellipse id="Oval" fill="#FFFFFF" transform="translate(181.480866, 93.909500) rotate(-30.000000) translate(-181.480866, -93.909500) " cx="181.480866" cy="93.9095" rx="3.593" ry="6.557"></ellipse>
            <path d="M183.051,92.753 C184.872,95.682 187.107,97.638 185.378,98.568 C183.65,99.498 178.614,99.034 176.793,96.103 C174.973,93.173 176.625,89.125 178.353,88.194 C180.083,87.264 181.227,89.818 183.051,92.754 L183.051,92.753 Z" id="Path" fill="#1A5EEF"></path>
            <path d="M198,69.48 C198,79.42 191.147,89 181.133,89 C171.12,89 163,80.941 163,71 C163,61.059 171.119,53 181.133,53 C191.147,53.01 198,59.538 198,69.48 Z" id="Path" fill="#000000" opacity="0.1"></path>
            <circle id="Oval" fill="#F4E8EA" cx="182" cy="71" r="18"></circle>
            <path d="M180.214,64.47 C182.38,65.293 183.662,67.603 185.606,68.89 C188.356,70.694 191.934,70.228 195.072,69.335 C196.822,68.843 198.651,68.242 200.372,68.789 C200.626,68.905 200.905,68.946 201.18,68.907 C201.554,68.797 201.74,68.369 201.862,67.987 C203.991,61.438 203.034,54.02 199.82,47.961 C198.99,46.399 197.996,44.888 196.627,43.803 C195.547,42.949 194.277,42.39 192.998,41.913 C190.663828,41.0477141 188.244717,40.4316235 185.781,40.075 C185.346787,39.9934935 184.902685,39.9786564 184.464,40.031 C183.862,40.131 183.322,40.466 182.785,40.765 C180.494875,42.0346427 177.939407,42.7507352 175.323,42.856 C171.825,42.993 167.826,42.142 165.13,44.458 C161.882,47.234 162.691,52.651 160.585,56.421 C159.19,58.914 156.501,60.724 156.059,63.563 C155.944052,64.4304357 155.997701,65.3119076 156.217,66.159 C157.247,70.527 161.344,73.909 165.712,73.989 C166.384632,74.0416257 167.058178,73.8992783 167.652,73.579 C168.042,73.304 168.388,72.965 168.674,72.576 C171.534,69.08 174.808,62.418 180.214,64.47 L180.214,64.47 Z" id="Path" fill="#444053"></path>
            <path d="M201.86,64.28 C201.737,64.652 201.552,65.07 201.177,65.179 C200.902446,65.2162189 200.622954,65.1760441 200.37,65.063 C198.65,64.529 196.81,65.116 195.074,65.597 C191.934,66.468 188.348,66.934 185.61,65.161 C183.664,63.901 182.385,61.635 180.216,60.844 C174.812,58.829 171.539,65.347 168.671,68.763 C168.385473,69.142698 168.040339,69.4736489 167.649,69.743 C167.053156,70.0560578 166.381091,70.1946993 165.71,70.143 C161.358,70.065 157.258,66.76 156.216,62.493 C156.158396,62.2432604 156.110361,61.9914098 156.072,61.738 C156.072,61.761 156.072,61.781 156.059,61.803 C155.94365,62.6507503 155.997006,63.5129403 156.216,64.34 C157.246,68.607 161.346,71.911 165.71,71.99 C166.381519,72.0415833 167.053962,71.9025886 167.65,71.589 C168.040626,71.3194797 168.385076,70.9885376 168.67,70.609 C171.54,67.194 174.812,60.685 180.216,62.69 C182.385,63.494 183.664,65.75 185.61,67.007 C188.358,68.77 191.933,68.315 195.074,67.443 C196.823,66.962 198.649,66.375 200.37,66.909 C200.624,67.022 200.903,67.062 201.177,67.025 C201.552,66.917 201.737,66.498 201.86,66.125 C202.71859,63.5060004 203.09766,60.7535894 202.979,58 C202.905393,60.1358568 202.528281,62.2503781 201.859,64.28 L201.86,64.28 Z" id="Path" fill="#000000" opacity="0.1"></path>
        </g>
    </g>
</svg>